inDegrees=yes
name=ik_S55_A03_T02
DataType=double
version=3
OpenSimVersion=4.3-2021-08-27-4bc7ad9
endheader
time	pelvis_tilt	pelvis_list	pelvis_rotation	pelvis_tx	pelvis_ty	pelvis_tz	hip_flexion_r	hip_adduction_r	hip_rotation_r	knee_angle_r	knee_angle_r_beta	ankle_angle_r	subtalar_angle_r	mtp_angle_r	hip_flexion_l	hip_adduction_l	hip_rotation_l	knee_angle_l	knee_angle_l_beta	ankle_angle_l	subtalar_angle_l	mtp_angle_l	lumbar_extension	lumbar_bending	lumbar_rotation	arm_flex_r	arm_add_r	arm_rot_r	elbow_flex_r	pro_sup_r	wrist_flex_r	wrist_dev_r	arm_flex_l	arm_add_l	arm_rot_l	elbow_flex_l	pro_sup_l	wrist_flex_l	wrist_dev_l
31.67999999999941	3.044974512011911	-5.323931243569401	-76.90701184199357	0	0.9399999999999999	0	7.999740006252585	2.479235456149986	-0.7949236056762791	9.147008255787165	0.1596454107705897	0	0	0	7.65210625799892	-4.070766617165776	-6.265329051986376	51.68539162091793	0.9020802589677068	0	0	0	0	0	0	43.03549965628564	-43.03549965628564	4.978390766390219	84.69712918837946	85.02160950708756	0	0	43.03549965628564	-43.03549965628564	4.978390766390219	84.69712918837946	85.02160950708351	0	0
31.69999999999941	3.07008551091961	-5.930946784450012	-76.91061130370821	0	0.9399999999999999	0	6.799037561226543	2.559086800432783	-1.194113652209902	9.142032969606339	0.1595585756455053	0	0	0	8.87149727321496	-4.524647791173994	-7.627356080227411	53.5489889662462	0.9346061685751108	0	0	0	0	0	0	43.04232201317276	-43.04232201317276	4.978519473162079	84.69893313692616	85.02148080032052	0	0	43.04232201317276	-43.04232201317276	4.978519473162079	84.69893313692616	85.02148080031644	0	0
31.71999999999941	3.105581252249779	-6.326038780327235	-76.93734850738443	0	0.9399999999999999	0	5.838424259870955	2.594686230235932	-1.029170112801221	9.418304429539987	0.1643804222506391	0	0	0	8.441801597126329	-4.853191962085005	-7.857880948840124	53.39311680697351	0.9318856861836093	0	0	0	0	0	0	43.04247568296275	-43.04247568296275	4.978522843555746	84.69898037643898	85.021477429927	0	0	43.04247568296275	-43.04247568296275	4.978522843555746	84.69898037643898	85.02147742992292	0	0
31.73999999999941	3.098238562221214	-6.499592210659233	-77.02385722597805	0	0.9399999999999999	0	5.044734939732953	2.641645702918415	-0.8002299640791154	9.740604661793249	0.1700056224834009	0	0	0	9.864451584287949	-5.180881438796065	-9.045557724500551	53.37744741812311	0.9316122037563946	0	0	0	0	0	0	43.0486457697357	-43.0486457697357	4.978638544950659	84.70060204186743	85.02136172853639	0	0	43.0486457697357	-43.0486457697357	4.978638544950659	84.70060204186743	85.02136172853231	0	0
31.75999999999941	2.967120422658754	-6.494856050094532	-77.09619026530338	0	0.9399999999999999	0	5.049176113283647	2.748529715452988	-0.8415623937190669	9.89754521249205	0.1727447518229881	0	0	0	11.49876871331536	-5.461522787664508	-9.016318773302814	52.79772078479397	0.9214940652432991	0	0	0	0	0	0	43.0564932594931	-43.0564932594931	4.978784856480505	84.70265273713903	85.02121541701202	0	0	43.0564932594931	-43.0564932594931	4.978784856480505	84.70265273713903	85.02121541700798	0	0
31.77999999999941	2.907347770584084	-6.556399432582357	-77.1463138410477	0	0.9399999999999999	0	4.204095207653689	2.757949914142952	-1.093047851483927	9.341953406452532	0.1630478455104968	0	0	0	12.89834217969846	-5.635598500612708	-8.213589051885323	51.10953400955309	0.8920296476267203	0	0	0	0	0	0	43.06031560399359	-43.06031560399359	4.978858149313121	84.70368000680696	85.02114212418215	0	0	43.06031560399359	-43.06031560399359	4.978858149313121	84.70368000680696	85.02114212417814	0	0
31.79999999999941	2.856986444901651	-6.589519217469444	-77.22354599484049	0	0.9399999999999999	0	4.183615074309817	2.818139180796644	-1.020618989384589	9.657835816131247	0.1685610336085239	0	0	0	14.25001243911069	-5.715223933761274	-7.108436109148236	48.75127821818365	0.8508703194630992	0	0	0	0	0	0	43.06807545536581	-43.06807545536581	4.979003280575634	84.705714159718	85.02099699292502	0	0	43.06807545536581	-43.06807545536581	4.979003280575634	84.705714159718	85.0209969929211	0	0
31.81999999999941	2.858670040712044	-6.578291154843952	-77.33531677515225	0	0.9399999999999999	0	2.61587765687283	2.757250738778318	-1.199911787828864	8.378751544150694	0.1462368016519886	0	0	0	15.48169503761523	-5.545279855360684	-6.118453606786774	45.7699483832664	0.7988362977558541	0	0	0	0	0	0	43.06945292306373	-43.06945292306373	4.979031697572694	84.70611245212795	85.02096857592905	0	0	43.06945292306373	-43.06945292306373	4.979031697572694	84.70611245212795	85.02096857592507	0	0
31.83999999999941	2.841737138184705	-6.546398014718376	-77.4373187215246	0	0.9399999999999999	0	1.884657296064853	2.751206203615592	-1.217531221667218	8.069597840377549	0.140841051626412	0	0	0	16.41735755825372	-5.068061264735316	-4.95427191002531	41.84846646855769	0.7303935267867757	0	0	0	0	0	0	43.07354570629703	-43.07354570629703	4.979110042263401	84.70721052836258	85.02089023124127	0	0	43.07354570629703	-43.07354570629703	4.979110042263401	84.70721052836258	85.02089023123729	0	0
31.85999999999941	2.851373348757711	-6.525632751820447	-77.46734135664417	0	0.9399999999999999	0	1.184260452714286	2.690621926603683	-1.170672142148529	7.470026510335608	0.1303765578166186	0	0	0	16.955555674881	-4.572366756532725	-4.251404536588968	37.53928588612969	0.6551841375604003	0	0	0	0	0	0	43.07438028271407	-43.07438028271407	4.979128191292228	84.70746490540391	85.02087208221315	0	0	43.07438028271407	-43.07438028271407	4.979128191292228	84.70746490540391	85.02087208220917	0	0
31.87999999999941	2.761869896563282	-6.288071901884562	-77.65008476674703	0	0.9399999999999999	0	0.7032725746927729	2.641487782302414	-1.008496783757688	7.01542734209299	0.1224423055539573	0	0	0	17.36882498240884	-3.945890361065449	-4.095226676970842	32.84186754542938	0.5731987211716111	0	0	0	0	0	0	43.07529031007643	-43.07529031007643	4.979147927025953	84.70774152169821	85.02085234648025	0	0	43.07529031007643	-43.07529031007643	4.979147927025953	84.70774152169821	85.02085234647629	0	0
31.89999999999941	2.610791212237108	-6.010182508901087	-77.73453533343172	0	0.9399999999999999	0	-0.5748681874536644	2.431911071981365	-1.215280682405367	5.740403693679528	0.1001889448483518	0	0	0	17.57717575694126	-3.443808426543841	-4.919513407905842	28.22365857412741	0.4925957690772513	0	0	0	0	0	0	43.07601521248426	-43.07601521248426	4.979163623465701	84.70796152318569	85.02083665004118	0	0	43.07601521248426	-43.07601521248426	4.979163623465701	84.70796152318569	85.0208366500372	0	0
31.91999999999941	2.360895135684955	-5.611564514878052	-77.80218263075257	0	0.9399999999999999	0	-0.1483209231892452	2.577736361349516	-1.245564657240487	5.80770890341074	0.1013636423619067	0	0	0	18.01673746378362	-3.474388255830172	-4.836229082161315	23.82332190020453	0.415795405921041	0	0	0	0	0	0	43.07685896754916	-43.07685896754916	4.979181734200576	84.70821536340014	85.02081853930702	0	0	43.07685896754916	-43.07685896754916	4.979181734200576	84.70821536340014	85.02081853930304	0	0
31.93999999999941	2.060252284512142	-5.258968747186702	-77.89361356178868	0	0.9399999999999999	0	-1.330629389217701	2.371360856982838	-1.645274534867279	4.562923109486071	0.07963803177586966	0	0	0	17.85180304810139	-2.838720699702317	-5.99982265863768	19.18748452787564	0.3348847801868995	0	0	0	0	0	0	43.07762094774507	-43.07762094774507	4.979198284492742	84.70844733250782	85.02080198901551	0	0	43.07762094774507	-43.07762094774507	4.979198284492742	84.70844733250782	85.02080198901153	0	0
31.95999999999941	1.716914519396852	-4.962032696239295	-78.01453584291487	0	0.9399999999999999	0	-1.673177665303527	2.428167581264524	-1.80824471730584	4.202245802795173	0.0733430252368881	0	0	0	17.75998592455677	-2.648684477627877	-5.889770053328031	18.62143505207623	0.325005353105012	0	0	0	0	0	0	43.07806901714855	-43.07806901714855	4.979208052425301	84.70858423998939	85.02079222108328	0	0	43.07806901714855	-43.07806901714855	4.979208052425301	84.70858423998939	85.02079222107933	0	0
31.97999999999941	1.549510961227991	-4.860753411930003	-78.07385352758743	0	0.9399999999999999	0	-2.211975731270931	2.348572672603705	-1.913068668378533	3.978719512172675	0.06944175550075579	0	0	0	17.30083111882931	-2.433105646452533	-6.211631286269054	11.2306881904547	0.1960124861882786	0	0	0	0	0	0	43.07913668629438	-43.07913668629438	4.979230979993491	84.70890559296863	85.02076929351607	0	0	43.07913668629438	-43.07913668629438	4.979230979993491	84.70890559296863	85.02076929351212	0	0
31.99999999999941	1.188906487187582	-4.621778250740294	-78.10565227296516	0	0.9399999999999999	0	-2.563136706564227	2.448833249125438	-1.713413957506686	3.566345900430482	0.06224447822751376	0	0	0	17.61337391620874	-2.654388748545211	-6.061568996207432	8.993908149047966	0.1569733098228359	0	0	0	0	0	0	43.07982629975812	-43.07982629975812	4.97924588919839	84.70911456054337	85.02075438431183	0	0	43.07982629975812	-43.07982629975812	4.97924588919839	84.70911456054337	85.02075438430788	0	0
32.01999999999941	0.8506889340254293	-4.497378650676953	-77.91848059788144	0	0.9399999999999999	0	-3.01449500316944	2.637967939130677	-1.535077505064108	3.041561046210303	0.05308525465677319	0	0	0	16.1535491406966	-2.644521177400741	-6.495999758903444	6.231207470452383	0.1087550867342614	0	0	0	0	0	0	43.08020597438755	-43.08020597438755	4.979254152309494	84.70923037641721	85.020746121201	0	0	43.08020597438755	-43.08020597438755	4.979254152309494	84.70923037641721	85.02074612119706	0	0
32.03999999999941	0.5902029877171584	-4.515465925673483	-77.67843119441639	0	0.9399999999999999	0	-3.550710424053826	2.827377266107919	-1.470996466923032	2.917202667235717	0.05091479149122376	0	0	0	16.20184198647091	-2.81688234959996	-6.174710622221183	6.228285073249434	0.1087040812810188	0	0	0	0	0	0	43.08040685186814	-43.08040685186814	4.979258511718253	84.70929147794287	85.02074176179242	0	0	43.08040685186814	-43.08040685186814	4.979258511718253	84.70929147794287	85.02074176178847	0	0
32.05999999999941	0.3539219358782045	-4.591643891698806	-77.4484398753121	0	0.9399999999999999	0	-4.122207800095559	3.021141304730967	-1.632206953581881	2.878863418757757	0.05024564537254315	0	0	0	15.21296086714981	-2.674091433215446	-5.793000991122926	4.766925048873379	0.08319853729863207	0	0	0	0	0	0	43.08093322986198	-43.08093322986198	4.979269957078664	84.70945189625935	85.02073031643251	0	0	43.08093322986198	-43.08093322986198	4.979269957078664	84.70945189625935	85.02073031642857	0	0
32.07999999999942	0.1718904906166409	-4.6957495398679	-77.216713397597	0	0.9399999999999999	0	-4.648522935339654	3.181756332289738	-2.354488587764787	3.138984695311276	0.05478561810289278	0	0	0	14.45054988424912	-2.842933097998688	-5.344413308676373	5.030935372477889	0.08780638670478648	0	0	0	0	0	0	43.08107275635012	-43.08107275635012	4.979272981392083	84.70949428507086	85.0207272921192	0	0	43.08107275635012	-43.08107275635012	4.979272981392083	84.70949428507086	85.02072729211527	0	0
32.09999999999942	0.007700096224529232	-4.666795821852642	-77.08330123816123	0	0.9399999999999999	0	-4.912397023383615	3.189628616713196	-3.440783644872885	3.880024856936519	0.06771920881276421	0	0	0	13.47257178369232	-2.847075657642581	-4.81382040065241	4.534145336093576	0.07913576487877778	0	0	0	0	0	0	43.08151959199898	-43.08151959199898	4.9792827117507	84.70963066590438	85.02071756176099	0	0	43.08151959199898	-43.08151959199898	4.9792827117507	84.70963066590438	85.02071756175705	0	0
